<?xml version="1.0" standalone="no"?><!-- Generator: Gravit.io --><svg xmlns="http://www.w3.org/2000/svg" xmlns:xlink="http://www.w3.org/1999/xlink" style="isolation:isolate" viewBox="0 0 500 500" width="500px" height="500px"><defs><clipPath id="_clipPath_emTAKin2Nw06ZxyxmI4LlYbdAGawriwB"><rect width="500" height="500"/></clipPath></defs><g clip-path="url(#_clipPath_emTAKin2Nw06ZxyxmI4LlYbdAGawriwB)"><g><g><path d=" M 75.447 163.597 C 62.015 201.771 15.358 103.507 75.447 135.321 C 57.774 113.406 79.689 83.713 103.726 107.042 C 107.26 92.904 123.519 84.421 132.002 107.042 C 153.917 63.92 187.142 94.318 160.279 135.321 C 173.711 154.406 162.4 186.218 132.002 163.597 C 112.209 183.391 88.173 184.099 75.447 163.597 Z " fill="rgb(206,206,206)"/><path d=" M 89.915 170.5 C 61.803 199.608 60.316 90.84 101.693 144.793 C 94.756 117.507 127.047 99.643 139.179 130.863 C 148.284 119.482 166.598 118.541 164.887 142.642 C 202.773 112.568 220.317 154.043 178.817 180.128 C 183.075 203.075 159.541 227.285 141.33 194.057 C 115.091 203.808 92.943 194.439 89.915 170.5 Z " fill="rgb(216,216,216)"/><path d=" M 171.217 171.277 C 135.649 190.579 166.958 86.403 190.186 150.305 C 191.778 122.195 227.949 114.876 230.125 148.3 C 242.23 140.185 259.98 144.8 251.097 167.269 C 296.276 149.985 300.528 194.82 253.102 207.208 C 250.259 230.374 220.532 246.382 213.161 209.213 C 185.204 210.615 166.904 195.016 171.217 171.277 Z " fill="rgb(223,223,223)"/><path d=" M 267.743 185.48 C 260.016 225.204 199.544 134.782 263.626 157.503 C 242.949 138.397 260.306 105.829 287.484 125.41 C 288.921 110.908 303.773 100.145 315.46 121.291 C 330.86 75.436 368.159 100.671 347.555 145.149 C 363.621 162.077 357.065 195.197 323.696 177.244 C 306.995 199.709 283.319 203.908 267.743 185.48 Z " fill="rgb(223,223,223)"/><path d=" M 340.882 139.573 C 305.314 158.875 336.623 54.699 359.849 118.601 C 361.443 90.493 397.611 83.172 399.79 116.596 C 411.895 108.482 429.645 113.097 420.762 135.565 C 465.941 118.283 470.193 163.116 422.767 175.504 C 419.924 198.67 390.197 214.677 382.826 177.509 C 354.866 178.911 336.566 163.312 340.882 139.573 Z " fill="rgb(223,223,223)"/><path d=" M 252.43 125.954 C 287.263 105.356 259.811 210.613 234.247 147.611 C 233.689 175.757 197.813 184.405 194.408 151.084 C 182.61 159.638 164.702 155.68 172.752 132.9 C 128.239 151.833 122.341 107.188 169.278 93.06 C 171.265 69.807 200.384 52.717 209.119 89.589 C 237.005 87.157 255.867 102.07 252.43 125.954 Z " fill="rgb(208,208,208)"/><path d=" M 239.385 101.543 C 199.455 108.129 263.165 19.958 264.177 87.942 C 274.889 61.906 311.461 66.838 302.569 99.132 C 316.665 95.43 331.924 105.605 316.17 123.924 C 364.519 122.396 353.848 166.148 304.978 162.316 C 294.705 183.274 261.375 188.657 266.586 151.127 C 239.711 143.292 227.531 122.56 239.385 101.543 Z " fill="rgb(210,210,210)"/><g><g><path d=" M 86.385 97.339 C 50.817 116.641 82.126 12.465 105.354 76.367 C 106.945 48.257 143.116 40.939 145.292 74.362 C 157.4 66.247 175.147 70.862 166.264 93.331 C 211.446 76.048 215.695 120.88 168.269 133.27 C 165.426 156.436 135.699 172.444 128.328 135.275 C 100.371 136.677 82.071 121.078 86.385 97.339 Z " fill="rgb(208,208,208)"/></g></g><g><g><path d=" M 313.804 99.995 C 282.858 126.072 292.522 17.724 328.154 75.63 C 324.048 47.778 357.999 33.314 366.871 65.612 C 377.092 55.224 395.406 56.165 391.236 79.964 C 432.003 53.927 445.207 96.98 401.251 118.678 C 403.14 141.941 377.249 163.613 362.537 128.694 C 335.436 135.707 314.366 124.118 313.804 99.995 Z " fill="rgb(208,208,208)"/></g></g><g><g><path d=" M 249.073 92.619 C 243.767 132.738 177.926 46.147 243.266 64.945 C 221.47 47.125 236.822 13.566 265.136 31.462 C 265.693 16.9 279.862 5.259 292.81 25.657 C 305.403 -21.047 344.164 1.881 326.293 47.524 C 343.357 63.447 338.818 96.905 304.424 81.005 C 289.115 104.443 265.736 110.07 249.073 92.619 Z " fill="rgb(208,208,208)"/></g></g><g><g><path d=" M 145.888 53.776 C 108.352 68.898 151.332 -31.029 167.123 35.102 C 171.909 7.359 208.678 4.208 207.032 37.664 C 219.984 30.982 237.09 37.591 225.704 58.898 C 272.559 46.88 271.673 91.904 223.142 98.807 C 217.68 121.499 186.32 134.012 183.235 96.245 C 155.299 94.453 138.896 76.87 145.888 53.776 Z " fill="rgb(214,214,214)"/></g></g></g></g><g><g><path d=" M 180.57 187.542 L 435.207 162.079 C 442.971 161.302 448.143 166.904 446.746 174.581 L 395.25 457.812 C 393.855 465.489 386.45 472.618 378.724 473.721 L 194.778 500 L 167.783 203.029 C 167.075 195.258 172.806 188.319 180.57 187.542 Z " fill="rgb(84,84,84)"/><path d=" M 157.358 186.663 L 62.538 162.958 C 57.489 161.695 54.221 164.812 55.242 169.914 L 108.098 434.203 C 109.119 439.304 113.462 445.787 117.79 448.673 L 194.778 500 L 167.356 198.336 C 166.885 193.155 162.405 187.924 157.358 186.663 Z " fill="rgb(137,137,137)"/></g></g></g></svg>